<svg xmlns="http://www.w3.org/2000/svg" width="1584" height="672" viewBox="0 0 1584 672" version="1.1"><path d="" stroke="none" fill="#000000" fill-rule="evenodd"/><path d="M 778 26.639 C 776.625 26.841, 772.125 27.483, 768 28.066 C 742.068 31.732, 712.212 44.767, 692.500 61.028 C 686.164 66.255, 668.544 84.598, 665.383 89.258 C 663.800 91.591, 662.252 93.725, 661.942 94 C 661.270 94.595, 655.259 104.589, 651.600 111.192 C 650.170 113.773, 649 116.586, 649 117.442 C 649 118.299, 648.550 119, 648 119 C 647.450 119, 646.985 119.563, 646.966 120.250 C 646.947 120.938, 646.063 123.300, 645 125.500 C 643.937 127.700, 643.053 130.294, 643.034 131.264 C 643.015 132.234, 642.564 133.809, 642.032 134.764 C 640.313 137.847, 637.178 151.201, 635.419 162.934 C 632.480 182.537, 634.520 210.164, 640.407 230.500 C 641.203 233.250, 642.359 237.300, 642.974 239.500 C 643.590 241.700, 644.570 244.625, 645.152 246 C 645.734 247.375, 646.763 249.850, 647.438 251.500 C 649.984 257.721, 658.530 274, 659.250 274 C 659.662 274, 660 274.427, 660 274.950 C 660 276.455, 671.637 293.211, 676.469 298.664 C 677.036 299.304, 678.625 301.318, 680 303.141 C 681.375 304.963, 683.890 308.039, 685.589 309.977 C 687.288 311.915, 689.763 314.815, 691.089 316.421 C 692.415 318.028, 694.175 320.060, 695 320.936 C 695.825 321.812, 699.425 326.117, 703 330.504 C 706.575 334.891, 709.950 338.992, 710.500 339.617 C 711.050 340.243, 712.175 341.752, 713 342.971 C 713.825 344.189, 715.513 346.382, 716.752 347.843 C 717.990 349.304, 720.684 352.975, 722.738 356 C 724.792 359.025, 726.708 361.725, 726.994 362 C 727.834 362.805, 736.405 375.930, 740.771 383.096 C 744.205 388.733, 749.568 398.425, 754.550 408 C 757.124 412.946, 761.823 423.550, 762.527 426 C 762.922 427.375, 763.580 428.950, 763.991 429.500 C 764.953 430.790, 772.545 453.127, 774.017 459 C 776.352 468.315, 778.157 477.817, 779.432 487.500 C 781.022 499.574, 782.155 502.227, 786.631 504.361 C 794.072 507.909, 801.730 505.233, 803.716 498.390 C 804.337 496.251, 805.323 490.225, 805.907 485 C 807.192 473.503, 809.231 462.436, 810.251 461.415 C 810.663 461.004, 811 459.834, 811 458.816 C 811 456.800, 816.289 440.421, 818.578 435.349 C 819.360 433.616, 820 431.697, 820 431.085 C 820 430.473, 820.434 429.191, 820.965 428.236 C 821.496 427.281, 822.873 424.250, 824.026 421.500 C 825.933 416.951, 834.040 400.617, 838.644 392.046 C 839.665 390.146, 841.063 387.976, 841.750 387.224 C 842.438 386.472, 843 385.252, 843 384.512 C 843 383.772, 843.360 383.017, 843.801 382.833 C 844.241 382.650, 846.820 378.900, 849.532 374.500 C 852.244 370.100, 854.812 366.050, 855.238 365.500 C 855.664 364.950, 860.799 357.975, 866.650 350 C 872.501 342.025, 877.560 335.275, 877.894 335 C 878.683 334.349, 884.520 327.584, 889.156 321.946 C 891.168 319.501, 894.012 316.150, 895.478 314.500 C 896.944 312.850, 901.144 307.675, 904.811 303 C 908.478 298.325, 912.301 293.600, 913.305 292.500 C 914.310 291.400, 916.091 288.925, 917.263 287 C 918.436 285.075, 919.672 283.275, 920.011 283 C 920.790 282.369, 932.108 263.356, 933.703 260 C 936.898 253.277, 939 247.965, 939 246.614 C 939 245.791, 939.399 244.871, 939.887 244.570 C 940.374 244.269, 941.090 242.330, 941.476 240.261 C 941.863 238.192, 942.510 236.050, 942.916 235.500 C 943.321 234.950, 944.464 230.900, 945.456 226.500 C 946.448 222.100, 947.720 217.150, 948.284 215.500 C 949.877 210.837, 950.432 167.662, 948.992 160.500 C 948.328 157.200, 947.412 152.250, 946.957 149.500 C 946.156 144.666, 941.948 130.588, 940.081 126.500 C 932.984 110.953, 929.173 103.515, 925.276 97.599 C 922.703 93.695, 920.351 90.275, 920.049 90 C 919.747 89.725, 917.711 87.250, 915.525 84.500 C 906.278 72.870, 891.353 59.433, 878.500 51.166 C 865.375 42.724, 845.680 34.432, 828.500 30.114 C 815.730 26.904, 788.814 25.052, 778 26.639 M 782 49.073 C 755.663 51.554, 735.063 59.170, 712.666 74.708 C 705.058 79.986, 688.240 97.446, 682.500 106.026 C 679.750 110.137, 677.244 113.725, 676.932 114 C 675.663 115.116, 667.113 133.874, 665.537 139 C 664.606 142.025, 663.572 145.175, 663.239 146 C 660.358 153.139, 658.124 170.174, 658.124 185 C 658.124 208.829, 662.558 228.617, 672.600 249.605 C 674.470 253.513, 676 257.225, 676 257.855 C 676 258.485, 676.337 259, 676.750 259.001 C 677.163 259.002, 678.809 261.333, 680.409 264.181 C 683.026 268.841, 692.411 281.716, 698.259 288.671 C 705.752 297.581, 713.933 307.103, 717.445 311.002 C 719.675 313.479, 722.625 317.005, 724 318.839 C 725.375 320.672, 726.981 322.696, 727.570 323.336 C 728.716 324.583, 739.666 339.449, 741.760 342.602 C 742.454 343.646, 745.287 347.650, 748.057 351.500 C 752.390 357.523, 756.418 363.809, 760.539 370.979 C 761.111 371.973, 762.097 373.411, 762.730 374.175 C 764.566 376.387, 781.710 410.180, 784.006 416.114 C 785.153 419.076, 786.694 422.850, 787.430 424.500 C 788.167 426.150, 789.362 429.188, 790.086 431.250 C 790.810 433.313, 791.874 434.999, 792.451 434.999 C 793.028 434.998, 795.237 430.385, 797.361 424.749 C 803.708 407.902, 823.366 369.291, 826.169 368.167 C 826.626 367.983, 827 367.445, 827 366.970 C 827 365.905, 839.742 346.664, 845.854 338.500 C 852.717 329.333, 860.806 319.238, 867.472 311.522 C 870.787 307.685, 874.625 303.234, 876 301.633 C 877.375 300.032, 878.956 298.221, 879.514 297.611 C 880.072 297, 882.086 294.475, 883.989 292 C 885.891 289.525, 887.711 287.275, 888.031 287 C 889.771 285.508, 901.291 269.546, 904.645 263.979 C 908.452 257.661, 915 244.662, 915 243.422 C 915 243.081, 915.652 241.384, 916.448 239.651 C 928.033 214.442, 930.149 172.089, 921.201 144.500 C 917.928 134.405, 910.485 117.239, 907.765 113.509 C 907.360 112.954, 903.728 108, 899.693 102.500 C 878.068 73.022, 844.614 53.861, 807.112 49.474 C 800.182 48.663, 793.609 48.061, 792.506 48.136 C 791.403 48.211, 786.675 48.633, 782 49.073 M 779 126.446 C 756.552 132.168, 739.969 148.725, 734.375 171 C 732.396 178.883, 733.050 193.820, 735.712 201.500 C 742.174 220.148, 755.154 233.225, 773.609 239.679 C 780.415 242.059, 783.012 242.434, 792.500 242.407 C 801.829 242.379, 804.699 241.960, 811.391 239.647 C 827.613 234.040, 838.654 224.002, 846.397 207.821 C 854.051 191.826, 852.996 169.243, 843.896 154.268 C 842.636 152.196, 841.357 150.275, 841.053 150 C 840.749 149.725, 838.732 147.301, 836.570 144.613 C 831.621 138.457, 820.430 131.095, 811.425 128.071 C 802.731 125.150, 787.146 124.369, 779 126.446 M 783.487 148.799 C 772.300 152.667, 764.511 159.272, 759.755 168.924 C 756.569 175.388, 756.567 192.262, 759.750 199 C 763.017 205.917, 768.483 211.613, 775.753 215.679 C 781.532 218.910, 783.403 219.432, 790.559 219.808 C 800.257 220.317, 804.272 219.210, 812.208 213.843 C 818.252 209.755, 822.745 204.111, 825.703 196.889 C 828.185 190.828, 828.166 177.137, 825.668 171 C 821.142 159.882, 811.715 151.463, 800.530 148.550 C 793.001 146.589, 789.741 146.636, 783.487 148.799 M 519.500 353.906 C 507.911 357.120, 501.369 360.874, 492.822 369.216 C 486.787 375.105, 482 382.285, 482 385.447 C 482 386.210, 481.544 386.985, 480.988 387.171 C 479.446 387.685, 477.608 398.591, 477.646 407 C 477.710 421.297, 480.263 428.158, 492.528 447 C 499.256 457.336, 509.996 475.638, 510.006 476.785 C 510.010 477.178, 510.599 478.625, 511.316 480 C 513.679 484.529, 518.390 499.915, 519.471 506.635 C 519.837 508.909, 521.070 511.771, 522.210 512.995 C 525.169 516.171, 530.659 518.234, 534.128 517.472 C 537.783 516.669, 543.001 512.368, 542.997 510.161 C 542.994 507.987, 545.943 495.069, 547.029 492.500 C 547.494 491.400, 548.189 489.375, 548.574 488 C 550.467 481.236, 561.562 461.011, 574.239 441.215 C 575.195 439.722, 576.288 437.825, 576.666 437 C 577.044 436.175, 577.667 435.275, 578.049 435 C 578.904 434.385, 582.269 426.899, 584.118 421.500 C 586.205 415.403, 585.883 396.838, 583.571 390.064 C 579.680 378.662, 571.215 367.706, 561.500 361.495 C 552.578 355.791, 545.712 353.812, 533.500 353.424 C 527.450 353.231, 521.150 353.448, 519.500 353.906 M 1060.500 353.659 C 1040.674 357.891, 1023.967 373.433, 1018.677 392.566 C 1016.798 399.363, 1016.509 412.146, 1018.081 419 C 1019.004 423.026, 1024.011 434.193, 1027.272 439.498 C 1031.007 445.573, 1037.570 455.569, 1038.107 456 C 1038.450 456.275, 1039.046 457.512, 1039.433 458.750 C 1039.819 459.988, 1040.554 461, 1041.067 461 C 1041.580 461, 1042 461.643, 1042 462.429 C 1042 463.214, 1042.564 464.452, 1043.254 465.179 C 1044.563 466.557, 1053 483.285, 1053 484.501 C 1053 484.884, 1053.629 486.616, 1054.399 488.349 C 1056.175 492.351, 1057.928 499.004, 1059.011 505.860 C 1059.993 512.077, 1062.751 515.561, 1067.793 516.953 C 1074.928 518.923, 1081.630 515.183, 1082.996 508.469 C 1083.440 506.286, 1084.344 501.800, 1085.005 498.500 C 1085.667 495.200, 1086.836 491.082, 1087.604 489.349 C 1088.372 487.616, 1089 485.770, 1089 485.248 C 1089 484.725, 1090.164 482.093, 1091.587 479.399 C 1093.010 476.705, 1095.598 471.809, 1097.337 468.519 C 1099.077 465.230, 1101.063 461.935, 1101.750 461.198 C 1102.438 460.461, 1103 459.252, 1103 458.512 C 1103 457.772, 1103.356 457.017, 1103.791 456.833 C 1104.694 456.453, 1117.493 435.679, 1120.805 429.219 C 1122.012 426.865, 1123 423.854, 1123 422.528 C 1123 421.203, 1123.412 419.863, 1123.915 419.552 C 1125.416 418.625, 1126.268 404.904, 1125.159 399.500 C 1122.018 384.184, 1118.920 377.945, 1110 368.969 C 1099.039 357.940, 1086.663 352.904, 1071.040 353.116 C 1066.343 353.180, 1061.600 353.424, 1060.500 353.659 M 522 376.589 C 519.525 377.478, 515.655 379.609, 513.401 381.325 C 498.658 392.543, 496.841 411.639, 508.827 429.398 C 510.572 431.984, 512 434.490, 512 434.967 C 512 435.443, 512.373 435.983, 512.829 436.167 C 513.850 436.577, 527.787 459.310, 529.043 462.612 C 529.542 463.926, 530.558 465, 531.301 465 C 532.043 465, 536.172 459.038, 540.476 451.750 C 544.780 444.462, 548.571 438.275, 548.900 438 C 549.590 437.425, 550.227 436.402, 556.687 425.500 L 561.427 417.500 561.464 407.500 C 561.494 399.258, 561.120 396.709, 559.339 393 C 556.584 387.261, 550.005 380.665, 544.263 377.885 C 538.332 375.014, 528.053 374.416, 522 376.589 M 1061.205 376.833 C 1053.995 379.407, 1049.237 383.479, 1044.553 391.089 C 1040.708 397.333, 1040.607 397.735, 1040.652 406.500 C 1040.693 414.488, 1041.028 416.118, 1043.631 421 C 1046.579 426.527, 1051.862 435.064, 1056.938 442.500 C 1058.439 444.700, 1059.984 447.175, 1060.370 448 C 1060.756 448.825, 1063.049 453.100, 1065.466 457.500 C 1069.908 465.588, 1072.224 467.580, 1073.369 464.298 C 1073.714 463.309, 1075.554 459.800, 1077.458 456.500 C 1079.362 453.200, 1081.230 449.825, 1081.608 449 C 1081.986 448.175, 1083.265 446.150, 1084.449 444.500 C 1087.695 439.976, 1098.433 421.910, 1099.881 418.536 C 1102.144 413.259, 1102.457 402.860, 1100.535 396.750 C 1095.553 380.913, 1076.626 371.328, 1061.205 376.833 M 856.378 418.437 C 850.405 421.036, 848.256 427.727, 851.425 433.855 C 853.621 438.103, 857.151 439.082, 875.500 440.534 C 920.161 444.069, 956.288 449.405, 991.421 457.655 C 1007.802 461.501, 1011.618 461.473, 1015.612 457.479 C 1017.439 455.652, 1018 454.007, 1018 450.480 C 1018 440.688, 1016.133 439.705, 985 433.105 C 959.268 427.649, 926.435 422.760, 898 420.150 C 891.675 419.570, 881.529 418.624, 875.454 418.047 C 861.627 416.736, 860.220 416.765, 856.378 418.437 M 713 418.595 C 711.075 418.800, 704.775 419.452, 699 420.046 C 674.520 422.561, 647.828 426.635, 623.500 431.570 C 593.398 437.675, 590.844 438.430, 587.750 442.133 C 583.003 447.815, 584.457 455.117, 591.011 458.506 C 594.807 460.469, 597.612 460.392, 606.833 458.070 C 616.529 455.628, 642.576 450.352, 651.616 448.999 C 670.509 446.171, 693.748 443.126, 704.500 442.070 C 727.563 439.805, 730.144 439.310, 732.809 436.646 C 734.549 434.906, 735.416 432.731, 735.748 429.272 C 736.150 425.091, 735.850 423.937, 733.718 421.458 C 731.409 418.775, 730.647 418.537, 723.858 418.387 C 719.811 418.297, 714.925 418.391, 713 418.595 M 728 452.652 C 687.726 455.362, 638.735 464.261, 610.979 473.909 C 591.245 480.768, 583.311 485.639, 574.167 496.509 C 570.611 500.736, 570.062 510.035, 573.001 516.261 C 582.909 537.253, 628.100 552.097, 706 559.947 C 745.776 563.955, 818.281 565.581, 825.360 562.623 C 831.573 560.027, 833.627 550.783, 829.139 545.612 C 825.421 541.329, 822.622 541, 789.782 540.991 C 762.964 540.982, 724.382 539.329, 709 537.529 C 650.837 530.722, 625.468 524.993, 603.699 513.752 C 597.405 510.502, 595.955 509.328, 596.199 507.676 C 597.196 500.899, 634.447 488.300, 670.500 482.547 C 676 481.669, 683.200 480.516, 686.500 479.983 C 693.319 478.884, 717.309 476.389, 730 475.460 C 745.038 474.358, 749 471.768, 749 463.039 C 749 457.891, 746.915 455.048, 741.685 453.067 C 738.965 452.036, 737.720 451.998, 728 452.652 M 841.500 453.079 C 837.785 455.274, 836.045 458.378, 836.022 462.850 C 836.004 466.441, 836.568 467.768, 839.254 470.454 C 842.391 473.591, 842.883 473.732, 853.004 474.388 C 890.775 476.838, 930.753 481.635, 949.500 485.967 C 982.809 493.663, 1005.004 502.402, 1004.998 507.818 C 1004.995 510.937, 994.445 516.581, 979.262 521.587 C 966.918 525.657, 964.287 527.114, 962.954 530.620 C 961.484 534.488, 962.918 540.843, 965.882 543.592 C 970.713 548.071, 980.311 546.570, 1000 538.257 C 1015.125 531.870, 1023.774 525.332, 1028.117 517 C 1029.936 513.510, 1030.180 511.833, 1029.668 506.345 C 1028.937 498.520, 1026.748 494.638, 1019.678 488.634 C 1007.837 478.577, 985.700 470.512, 951 463.614 C 934.942 460.422, 916.291 457.470, 903 456.016 C 897.225 455.384, 888.900 454.453, 884.500 453.947 C 870.201 452.304, 843.716 451.769, 841.500 453.079 M 486 481.687 C 485.175 482.036, 482.250 483.999, 479.500 486.050 C 470.935 492.435, 465.092 499.575, 459.950 509.942 C 457.098 515.691, 456.745 517.358, 456.669 525.442 C 456.613 531.438, 457.129 536.022, 458.196 539.001 C 460.123 544.383, 463.208 549.985, 464.250 549.994 C 464.663 549.997, 465 550.572, 465 551.270 C 465 552.575, 473.764 561.665, 480 566.828 C 512.013 593.335, 593.880 617.537, 681.500 626.397 C 729.431 631.243, 752.834 632.260, 807 631.851 C 848.931 631.535, 853.813 631.329, 856.689 629.756 C 863.140 626.228, 864.845 619.721, 860.964 613.441 C 858.311 609.150, 853.813 608.221, 840 609.111 C 823.227 610.192, 766.095 610.112, 747 608.981 C 668.875 604.350, 609.853 594.984, 559 579.148 C 536.206 572.049, 514.856 562.669, 502.129 554.163 C 483.074 541.427, 476.564 529.808, 482.053 518.333 C 484.144 513.963, 496.966 500, 498.889 500 C 499.323 500, 500.201 498.854, 500.839 497.453 C 504.285 489.891, 499.972 482.101, 491.968 481.428 C 489.510 481.221, 486.825 481.338, 486 481.687 M 1106.011 481.892 C 1102.684 482.818, 1099 488.490, 1099 492.686 C 1099 495.632, 1100.165 497.218, 1107.888 504.788 C 1117.995 514.695, 1121.004 519.729, 1120.991 526.710 C 1120.963 540.565, 1105.583 553.346, 1069.456 569.534 C 1061.395 573.147, 1042.986 579.359, 1029.500 583.018 C 1005.737 589.465, 985.205 593.923, 963 597.456 C 944.929 600.331, 940.942 601.633, 938.421 605.480 C 936.345 608.649, 936.947 616.179, 939.503 619.003 C 943.145 623.028, 946.620 623.246, 963.384 620.503 C 1033.584 609.017, 1089.730 590.433, 1117.595 569.461 C 1150.286 544.857, 1153.990 517.828, 1128.188 492.158 C 1117.700 481.723, 1113.539 479.797, 1106.011 481.892 M 887.500 494.462 C 877.823 496.234, 868.062 501.124, 860.792 507.843 C 854.601 513.564, 848.876 521.419, 847.560 526 C 847.164 527.375, 846.151 530.025, 845.307 531.890 C 844.235 534.259, 843.761 538.624, 843.731 546.390 C 843.669 562.415, 844.760 565.222, 862.429 594.508 C 869.068 605.513, 875.231 616.088, 876.124 618.008 C 880.059 626.468, 883.495 636.891, 884.527 643.500 C 885.919 652.415, 888.613 656.247, 894.664 657.918 C 898.220 658.900, 903.101 657.991, 905.655 655.872 C 907.651 654.214, 909.567 649.375, 910.385 643.919 C 911.303 637.797, 916.136 624.498, 921.237 614.057 C 923.536 609.351, 925.690 605.275, 926.022 605 C 927.052 604.148, 943.680 576.568, 946.281 571.395 C 955.371 553.326, 953.540 531.059, 941.686 515.500 C 933.360 504.571, 921.770 497.309, 908.185 494.508 C 899.623 492.743, 896.922 492.737, 887.500 494.462 M 887.763 517.514 C 878.447 520.936, 870.289 529.520, 867.876 538.441 C 867.272 540.673, 866.981 545.650, 867.229 549.500 C 867.766 557.832, 870.317 563.447, 880.847 579.477 C 884.781 585.466, 888 590.959, 888 591.683 C 888 592.407, 888.420 593, 888.933 593 C 889.446 593, 890.181 594.013, 890.567 595.250 C 890.954 596.487, 891.546 597.725, 891.885 598 C 892.223 598.275, 893.368 600.205, 894.428 602.289 C 895.589 604.569, 896.963 605.961, 897.878 605.785 C 898.715 605.624, 900.687 603.019, 902.260 599.996 C 903.834 596.973, 905.876 593.375, 906.798 592 C 907.721 590.625, 908.931 588.716, 909.488 587.758 C 910.045 586.801, 913.963 580.413, 918.195 573.565 C 928.910 556.224, 930.840 548.805, 927.336 538.428 C 923.858 528.129, 917.682 521.525, 908.212 517.980 C 902.084 515.685, 893.287 515.485, 887.763 517.514" stroke="none" fill="#696969" fill-rule="evenodd"/></svg>