<svg width="290" height="385" viewBox="0 0 290 385" fill="none" xmlns="http://www.w3.org/2000/svg">
<path d="M145 147C146.105 147 147 146.105 147 145C147 143.895 146.105 143 145 143C143.895 143 143 143.895 143 145C143 146.105 143.895 147 145 147Z" fill="#B79F8B"/>
<path d="M44.3066 310.874H49.0645L57.7188 325.353L66.373 310.874H71.1514L59.7695 328.859V341H55.6885V328.859L44.3066 310.874Z" fill="#B79F8B"/>
<path d="M75.5811 310.874H79.7031V341H75.5811V310.874Z" fill="#B79F8B"/>
<path d="M101.811 328.654L97.2373 315.345L92.377 328.654H101.811ZM95.1045 310.874H99.7188L110.649 341H106.179L103.123 331.977H91.208L87.9473 341H83.7637L95.1045 310.874Z" fill="#B79F8B"/>
<path d="M114.259 310.874H120.104L128.758 336.345L137.351 310.874H143.134V341H139.258V323.22C139.258 322.604 139.271 321.586 139.299 320.164C139.326 318.742 139.34 317.218 139.34 315.591L130.747 341H126.707L118.053 315.591V316.514C118.053 317.252 118.066 318.38 118.094 319.897C118.135 321.401 118.155 322.509 118.155 323.22V341H114.259V310.874Z" fill="#B79F8B"/>
<path d="M164.811 328.654L160.237 315.345L155.377 328.654H164.811ZM158.104 310.874H162.719L173.649 341H169.179L166.123 331.977H154.208L150.947 341H146.764L158.104 310.874Z" fill="#B79F8B"/>
<path d="M191.368 324.676C193.282 324.676 194.793 324.293 195.9 323.527C197.021 322.762 197.582 321.381 197.582 319.385C197.582 317.238 196.803 315.775 195.244 314.996C194.41 314.586 193.296 314.381 191.901 314.381H181.935V324.676H191.368ZM177.854 310.874H191.799C194.096 310.874 195.989 311.209 197.479 311.879C200.31 313.164 201.725 315.536 201.725 318.995C201.725 320.8 201.349 322.276 200.597 323.425C199.858 324.573 198.819 325.496 197.479 326.193C198.655 326.672 199.537 327.301 200.125 328.08C200.727 328.859 201.062 330.124 201.13 331.874L201.273 335.914C201.314 337.062 201.41 337.917 201.561 338.478C201.807 339.435 202.244 340.05 202.873 340.323V341H197.869C197.732 340.74 197.623 340.405 197.541 339.995C197.459 339.585 197.391 338.792 197.336 337.616L197.09 332.592C196.994 330.623 196.263 329.304 194.896 328.634C194.116 328.265 192.893 328.08 191.225 328.08H181.935V341H177.854V310.874Z" fill="#B79F8B"/>
<path d="M208.636 310.874H212.758V341H208.636V310.874Z" fill="#B79F8B"/>
<path d="M219.402 310.874H224.222L239.438 335.278V310.874H243.314V341H238.741L223.299 316.616V341H219.402V310.874Z" fill="#B79F8B"/>
<path d="M92.3008 378.709L90.3408 373.005L88.2578 378.709H92.3008ZM89.4268 371.089H91.4043L96.0889 384H94.1729L92.8633 380.133H87.7568L86.3594 384H84.5664L89.4268 371.089Z" fill="#B79F8B"/>
<path d="M97.8467 371.089H103.656C104.805 371.089 105.73 371.414 106.434 372.064C107.137 372.709 107.488 373.617 107.488 374.789C107.488 375.797 107.175 376.676 106.548 377.426C105.921 378.17 104.957 378.542 103.656 378.542H99.5957V384H97.8467V371.089ZM105.722 374.798C105.722 373.849 105.37 373.204 104.667 372.864C104.28 372.683 103.75 372.592 103.076 372.592H99.5957V377.065H103.076C103.861 377.065 104.497 376.898 104.983 376.564C105.476 376.23 105.722 375.642 105.722 374.798Z" fill="#B79F8B"/>
<path d="M114.977 378.709L113.017 373.005L110.934 378.709H114.977ZM112.103 371.089H114.08L118.765 384H116.849L115.539 380.133H110.433L109.035 384H107.242L112.103 371.089Z" fill="#B79F8B"/>
<path d="M126.358 377.004C127.179 377.004 127.826 376.84 128.301 376.512C128.781 376.184 129.021 375.592 129.021 374.736C129.021 373.816 128.688 373.189 128.02 372.855C127.662 372.68 127.185 372.592 126.587 372.592H122.315V377.004H126.358ZM120.566 371.089H126.543C127.527 371.089 128.339 371.232 128.978 371.52C130.19 372.07 130.797 373.087 130.797 374.569C130.797 375.343 130.636 375.976 130.313 376.468C129.997 376.96 129.552 377.355 128.978 377.654C129.481 377.859 129.859 378.129 130.111 378.463C130.369 378.797 130.513 379.339 130.542 380.089L130.604 381.82C130.621 382.312 130.662 382.679 130.727 382.919C130.832 383.329 131.02 383.593 131.289 383.71V384H129.145C129.086 383.889 129.039 383.745 129.004 383.569C128.969 383.394 128.939 383.054 128.916 382.55L128.811 380.396C128.77 379.553 128.456 378.987 127.87 378.7C127.536 378.542 127.012 378.463 126.297 378.463H122.315V384H120.566V371.089Z" fill="#B79F8B"/>
<path d="M142.442 371.089V372.627H138.092V384H136.316V372.627H131.966V371.089H142.442Z" fill="#B79F8B"/>
<path d="M144.007 371.089H146.512L150.221 382.005L153.903 371.089H156.382V384H154.721V376.38C154.721 376.116 154.727 375.68 154.738 375.07C154.75 374.461 154.756 373.808 154.756 373.11L151.073 384H149.342L145.633 373.11V373.506C145.633 373.822 145.639 374.306 145.65 374.956C145.668 375.601 145.677 376.075 145.677 376.38V384H144.007V371.089Z" fill="#B79F8B"/>
<path d="M159.212 371.089H168.625V372.671H160.917V376.591H168.045V378.085H160.917V382.462H168.757V384H159.212V371.089Z" fill="#B79F8B"/>
<path d="M171.051 371.089H173.116L179.638 381.548V371.089H181.299V384H179.339L172.721 373.55V384H171.051V371.089Z" fill="#B79F8B"/>
<path d="M193.454 371.089V372.627H189.104V384H187.328V372.627H182.978V371.089H193.454Z" fill="#B79F8B"/>
<path d="M196.205 379.834C196.246 380.566 196.419 381.161 196.724 381.618C197.304 382.474 198.326 382.901 199.791 382.901C200.447 382.901 201.045 382.808 201.584 382.62C202.627 382.257 203.148 381.606 203.148 380.669C203.148 379.966 202.929 379.465 202.489 379.166C202.044 378.873 201.347 378.618 200.397 378.401L198.648 378.006C197.506 377.748 196.697 377.464 196.223 377.153C195.402 376.614 194.992 375.809 194.992 374.736C194.992 373.576 195.394 372.624 196.196 371.88C196.999 371.136 198.136 370.764 199.606 370.764C200.96 370.764 202.108 371.092 203.052 371.748C204.001 372.398 204.476 373.441 204.476 374.877H202.832C202.744 374.186 202.557 373.655 202.27 373.286C201.736 372.612 200.831 372.275 199.554 372.275C198.522 372.275 197.781 372.492 197.33 372.926C196.879 373.359 196.653 373.863 196.653 374.438C196.653 375.07 196.917 375.533 197.444 375.826C197.79 376.014 198.572 376.248 199.791 376.529L201.602 376.942C202.475 377.142 203.148 377.414 203.623 377.76C204.443 378.363 204.854 379.239 204.854 380.388C204.854 381.817 204.332 382.84 203.289 383.455C202.252 384.07 201.045 384.378 199.668 384.378C198.062 384.378 196.806 383.968 195.897 383.147C194.989 382.333 194.544 381.229 194.562 379.834H196.205Z" fill="#B79F8B"/>
</svg>
